<svg width="347" height="40" viewBox="0 0 347 40" fill="none" xmlns="http://www.w3.org/2000/svg">
<rect x="1" y="1" width="345" height="38" rx="9" fill="#2D6DA4" stroke="white" stroke-width="2"/>
<path d="M147.481 22.3887C147.481 22.0013 147.345 21.7051 147.071 21.5C146.798 21.2904 146.306 21.0716 145.595 20.8438C144.884 20.6113 144.321 20.3835 143.906 20.1602C142.776 19.5495 142.211 18.7269 142.211 17.6924C142.211 17.1546 142.361 16.6761 142.662 16.2568C142.967 15.833 143.403 15.5026 143.968 15.2656C144.537 15.0286 145.175 14.9102 145.882 14.9102C146.593 14.9102 147.226 15.04 147.782 15.2998C148.338 15.555 148.769 15.9173 149.074 16.3867C149.384 16.8561 149.539 17.3893 149.539 17.9863H147.488C147.488 17.5306 147.345 17.1774 147.058 16.9268C146.771 16.6715 146.367 16.5439 145.848 16.5439C145.346 16.5439 144.957 16.651 144.679 16.8652C144.401 17.0749 144.262 17.3529 144.262 17.6992C144.262 18.0228 144.424 18.2939 144.747 18.5127C145.075 18.7314 145.556 18.9365 146.189 19.1279C147.356 19.4788 148.206 19.9141 148.739 20.4336C149.272 20.9531 149.539 21.6003 149.539 22.375C149.539 23.2363 149.213 23.9131 148.562 24.4053C147.91 24.8929 147.033 25.1367 145.93 25.1367C145.164 25.1367 144.467 24.9977 143.838 24.7197C143.209 24.4372 142.728 24.0521 142.396 23.5645C142.067 23.0768 141.903 22.5117 141.903 21.8691H143.961C143.961 22.9674 144.617 23.5166 145.93 23.5166C146.417 23.5166 146.798 23.4186 147.071 23.2227C147.345 23.0221 147.481 22.7441 147.481 22.3887ZM155.233 24.248C154.746 24.8405 154.071 25.1367 153.21 25.1367C152.417 25.1367 151.811 24.9089 151.392 24.4531C150.977 23.9974 150.765 23.3298 150.756 22.4502V17.6035H152.731V22.3818C152.731 23.152 153.082 23.5371 153.784 23.5371C154.454 23.5371 154.914 23.3047 155.165 22.8398V17.6035H157.147V25H155.288L155.233 24.248ZM165.303 21.3701C165.303 22.555 165.05 23.4801 164.544 24.1455C164.038 24.8063 163.332 25.1367 162.425 25.1367C161.623 25.1367 160.982 24.8291 160.504 24.2139L160.415 25H158.638V14.5H160.613V18.2666C161.069 17.7334 161.668 17.4668 162.411 17.4668C163.313 17.4668 164.02 17.7995 164.53 18.4648C165.045 19.1257 165.303 20.0576 165.303 21.2607V21.3701ZM163.327 21.2266C163.327 20.4792 163.209 19.9346 162.972 19.5928C162.735 19.2464 162.382 19.0732 161.912 19.0732C161.283 19.0732 160.85 19.3307 160.613 19.8457V22.7646C160.855 23.2842 161.292 23.5439 161.926 23.5439C162.564 23.5439 162.983 23.2295 163.184 22.6006C163.279 22.2998 163.327 21.8418 163.327 21.2266ZM170.532 22.9561C170.532 22.7145 170.411 22.5254 170.17 22.3887C169.933 22.2474 169.55 22.1221 169.021 22.0127C167.262 21.6436 166.383 20.8962 166.383 19.7705C166.383 19.1143 166.654 18.5674 167.196 18.1299C167.743 17.6878 168.456 17.4668 169.336 17.4668C170.275 17.4668 171.024 17.6878 171.585 18.1299C172.15 18.5719 172.433 19.1462 172.433 19.8525H170.457C170.457 19.57 170.366 19.3376 170.184 19.1553C170.001 18.9684 169.716 18.875 169.329 18.875C168.996 18.875 168.739 18.9502 168.557 19.1006C168.374 19.251 168.283 19.4424 168.283 19.6748C168.283 19.8936 168.386 20.0713 168.591 20.208C168.8 20.3402 169.151 20.4564 169.644 20.5566C170.136 20.6523 170.55 20.7617 170.888 20.8848C171.931 21.2676 172.453 21.9307 172.453 22.874C172.453 23.5485 172.164 24.0954 171.585 24.5146C171.006 24.9294 170.259 25.1367 169.343 25.1367C168.723 25.1367 168.172 25.0273 167.688 24.8086C167.21 24.5853 166.834 24.2822 166.561 23.8994C166.287 23.512 166.15 23.0951 166.15 22.6484H168.023C168.042 22.9993 168.172 23.2682 168.413 23.4551C168.655 23.6419 168.978 23.7354 169.384 23.7354C169.762 23.7354 170.047 23.6647 170.238 23.5234C170.434 23.3776 170.532 23.1885 170.532 22.9561ZM176.808 23.5439C177.172 23.5439 177.468 23.4437 177.696 23.2432C177.924 23.0426 178.043 22.776 178.052 22.4434H179.904C179.9 22.9447 179.763 23.4049 179.494 23.8242C179.225 24.2389 178.856 24.5625 178.387 24.7949C177.922 25.0228 177.407 25.1367 176.842 25.1367C175.785 25.1367 174.951 24.8018 174.34 24.1318C173.729 23.4574 173.424 22.5277 173.424 21.3428V21.2129C173.424 20.0736 173.727 19.1644 174.333 18.4854C174.939 17.8063 175.771 17.4668 176.828 17.4668C177.753 17.4668 178.494 17.7311 179.05 18.2598C179.61 18.7839 179.895 19.4834 179.904 20.3584H178.052C178.043 19.9756 177.924 19.6657 177.696 19.4287C177.468 19.1872 177.168 19.0664 176.794 19.0664C176.334 19.0664 175.985 19.235 175.748 19.5723C175.516 19.9049 175.399 20.4473 175.399 21.1992V21.4043C175.399 22.1654 175.516 22.7122 175.748 23.0449C175.98 23.3776 176.334 23.5439 176.808 23.5439ZM185.188 19.4561C184.92 19.4196 184.683 19.4014 184.478 19.4014C183.73 19.4014 183.24 19.6543 183.008 20.1602V25H181.032V17.6035H182.898L182.953 18.4854C183.35 17.8063 183.899 17.4668 184.601 17.4668C184.819 17.4668 185.024 17.4964 185.216 17.5557L185.188 19.4561ZM188.23 25H186.248V17.6035H188.23V25ZM186.132 15.6895C186.132 15.3932 186.23 15.1494 186.426 14.958C186.626 14.7666 186.897 14.6709 187.239 14.6709C187.576 14.6709 187.845 14.7666 188.046 14.958C188.246 15.1494 188.347 15.3932 188.347 15.6895C188.347 15.9902 188.244 16.2363 188.039 16.4277C187.839 16.6191 187.572 16.7148 187.239 16.7148C186.907 16.7148 186.638 16.6191 186.433 16.4277C186.232 16.2363 186.132 15.9902 186.132 15.6895ZM196.529 21.3701C196.529 22.555 196.276 23.4801 195.771 24.1455C195.265 24.8063 194.558 25.1367 193.651 25.1367C192.849 25.1367 192.209 24.8291 191.73 24.2139L191.642 25H189.864V14.5H191.84V18.2666C192.296 17.7334 192.895 17.4668 193.638 17.4668C194.54 17.4668 195.246 17.7995 195.757 18.4648C196.272 19.1257 196.529 20.0576 196.529 21.2607V21.3701ZM194.554 21.2266C194.554 20.4792 194.435 19.9346 194.198 19.5928C193.961 19.2464 193.608 19.0732 193.139 19.0732C192.51 19.0732 192.077 19.3307 191.84 19.8457V22.7646C192.081 23.2842 192.519 23.5439 193.152 23.5439C193.79 23.5439 194.21 23.2295 194.41 22.6006C194.506 22.2998 194.554 21.8418 194.554 21.2266ZM201.157 25.1367C200.073 25.1367 199.188 24.804 198.505 24.1387C197.826 23.4733 197.486 22.5869 197.486 21.4795V21.2881C197.486 20.5452 197.63 19.8822 197.917 19.2988C198.204 18.7109 198.61 18.2598 199.134 17.9453C199.662 17.6263 200.264 17.4668 200.938 17.4668C201.95 17.4668 202.745 17.7858 203.324 18.4238C203.908 19.0618 204.199 19.9665 204.199 21.1377V21.9443H199.489C199.553 22.4274 199.744 22.8148 200.063 23.1064C200.387 23.3981 200.795 23.5439 201.287 23.5439C202.048 23.5439 202.643 23.2682 203.071 22.7168L204.042 23.8037C203.746 24.223 203.345 24.5511 202.839 24.7881C202.333 25.0205 201.772 25.1367 201.157 25.1367ZM200.932 19.0664C200.54 19.0664 200.221 19.1986 199.975 19.4629C199.733 19.7272 199.578 20.1055 199.51 20.5977H202.258V20.4404C202.249 20.0029 202.13 19.6657 201.902 19.4287C201.674 19.1872 201.351 19.0664 200.932 19.0664Z" fill="white"/>
</svg>
