<svg width="79" height="26" viewBox="0 0 79 26" fill="none" xmlns="http://www.w3.org/2000/svg">
<rect x="1" y="1" width="77" height="24" rx="9" fill="#2D6DA4" stroke="white" stroke-width="2"/>
<path d="M17.627 14.7617C17.627 14.4297 17.5098 14.1758 17.2754 14C17.041 13.8203 16.6191 13.6328 16.0098 13.4375C15.4004 13.2383 14.918 13.043 14.5625 12.8516C13.5938 12.3281 13.1094 11.623 13.1094 10.7363C13.1094 10.2754 13.2383 9.86523 13.4961 9.50586C13.7578 9.14258 14.1309 8.85938 14.6152 8.65625C15.1035 8.45312 15.6504 8.35156 16.2559 8.35156C16.8652 8.35156 17.4082 8.46289 17.8848 8.68555C18.3613 8.9043 18.7305 9.21484 18.9922 9.61719C19.2578 10.0195 19.3906 10.4766 19.3906 10.9883H17.6328C17.6328 10.5977 17.5098 10.2949 17.2637 10.0801C17.0176 9.86133 16.6719 9.75195 16.2266 9.75195C15.7969 9.75195 15.4629 9.84375 15.2246 10.0273C14.9863 10.207 14.8672 10.4453 14.8672 10.7422C14.8672 11.0195 15.0059 11.252 15.2832 11.4395C15.5645 11.627 15.9766 11.8027 16.5195 11.9668C17.5195 12.2676 18.248 12.6406 18.7051 13.0859C19.1621 13.5312 19.3906 14.0859 19.3906 14.75C19.3906 15.4883 19.1113 16.0684 18.5527 16.4902C17.9941 16.9082 17.2422 17.1172 16.2969 17.1172C15.6406 17.1172 15.043 16.998 14.5039 16.7598C13.9648 16.5176 13.5527 16.1875 13.2676 15.7695C12.9863 15.3516 12.8457 14.8672 12.8457 14.3164H14.6094C14.6094 15.2578 15.1719 15.7285 16.2969 15.7285C16.7148 15.7285 17.041 15.6445 17.2754 15.4766C17.5098 15.3047 17.627 15.0664 17.627 14.7617ZM24.2715 16.3555C23.8535 16.8633 23.2754 17.1172 22.5371 17.1172C21.8574 17.1172 21.3379 16.9219 20.9785 16.5312C20.623 16.1406 20.4414 15.5684 20.4336 14.8145V10.6602H22.127V14.7559C22.127 15.416 22.4277 15.7461 23.0293 15.7461C23.6035 15.7461 23.998 15.5469 24.2129 15.1484V10.6602H25.9121V17H24.3184L24.2715 16.3555ZM32.9023 13.8887C32.9023 14.9043 32.6855 15.6973 32.252 16.2676C31.8184 16.834 31.2129 17.1172 30.4355 17.1172C29.748 17.1172 29.1992 16.8535 28.7891 16.3262L28.7129 17H27.1895V8H28.8828V11.2285C29.2734 10.7715 29.7871 10.543 30.4238 10.543C31.1973 10.543 31.8027 10.8281 32.2402 11.3984C32.6816 11.9648 32.9023 12.7637 32.9023 13.7949V13.8887ZM31.209 13.7656C31.209 13.125 31.1074 12.6582 30.9043 12.3652C30.7012 12.0684 30.3984 11.9199 29.9961 11.9199C29.457 11.9199 29.0859 12.1406 28.8828 12.582V15.084C29.0898 15.5293 29.4648 15.752 30.0078 15.752C30.5547 15.752 30.9141 15.4824 31.0859 14.9434C31.168 14.6855 31.209 14.293 31.209 13.7656ZM37.3848 15.248C37.3848 15.041 37.2812 14.8789 37.0742 14.7617C36.8711 14.6406 36.543 14.5332 36.0898 14.4395C34.582 14.123 33.8281 13.4824 33.8281 12.5176C33.8281 11.9551 34.0605 11.4863 34.5254 11.1113C34.9941 10.7324 35.6055 10.543 36.3594 10.543C37.1641 10.543 37.8066 10.7324 38.2871 11.1113C38.7715 11.4902 39.0137 11.9824 39.0137 12.5879H37.3203C37.3203 12.3457 37.2422 12.1465 37.0859 11.9902C36.9297 11.8301 36.6855 11.75 36.3535 11.75C36.0684 11.75 35.8477 11.8145 35.6914 11.9434C35.5352 12.0723 35.457 12.2363 35.457 12.4355C35.457 12.623 35.5449 12.7754 35.7207 12.8926C35.9004 13.0059 36.2012 13.1055 36.623 13.1914C37.0449 13.2734 37.4004 13.3672 37.6895 13.4727C38.584 13.8008 39.0312 14.3691 39.0312 15.1777C39.0312 15.7559 38.7832 16.2246 38.2871 16.584C37.791 16.9395 37.1504 17.1172 36.3652 17.1172C35.834 17.1172 35.3613 17.0234 34.9473 16.8359C34.5371 16.6445 34.2148 16.3848 33.9805 16.0566C33.7461 15.7246 33.6289 15.3672 33.6289 14.9844H35.2344C35.25 15.2852 35.3613 15.5156 35.5684 15.6758C35.7754 15.8359 36.0527 15.916 36.4004 15.916C36.7246 15.916 36.9688 15.8555 37.1328 15.7344C37.3008 15.6094 37.3848 15.4473 37.3848 15.248ZM42.7637 15.752C43.0762 15.752 43.3301 15.666 43.5254 15.4941C43.7207 15.3223 43.8223 15.0938 43.8301 14.8086H45.418C45.4141 15.2383 45.2969 15.6328 45.0664 15.9922C44.8359 16.3477 44.5195 16.625 44.1172 16.8242C43.7188 17.0195 43.2773 17.1172 42.793 17.1172C41.8867 17.1172 41.1719 16.8301 40.6484 16.2559C40.125 15.6777 39.8633 14.8809 39.8633 13.8652V13.7539C39.8633 12.7773 40.123 11.998 40.6426 11.416C41.1621 10.834 41.875 10.543 42.7812 10.543C43.5742 10.543 44.209 10.7695 44.6855 11.2227C45.166 11.6719 45.4102 12.2715 45.418 13.0215H43.8301C43.8223 12.6934 43.7207 12.4277 43.5254 12.2246C43.3301 12.0176 43.0723 11.9141 42.752 11.9141C42.3574 11.9141 42.0586 12.0586 41.8555 12.3477C41.6562 12.6328 41.5566 13.0977 41.5566 13.7422V13.918C41.5566 14.5703 41.6562 15.0391 41.8555 15.3242C42.0547 15.6094 42.3574 15.752 42.7637 15.752ZM49.9473 12.248C49.7168 12.2168 49.5137 12.2012 49.3379 12.2012C48.6973 12.2012 48.2773 12.418 48.0781 12.8516V17H46.3848V10.6602H47.9844L48.0312 11.416C48.3711 10.834 48.8418 10.543 49.4434 10.543C49.6309 10.543 49.8066 10.5684 49.9707 10.6191L49.9473 12.248ZM52.5547 17H50.8555V10.6602H52.5547V17ZM50.7559 9.01953C50.7559 8.76562 50.8398 8.55664 51.0078 8.39258C51.1797 8.22852 51.4121 8.14648 51.7051 8.14648C51.9941 8.14648 52.2246 8.22852 52.3965 8.39258C52.5684 8.55664 52.6543 8.76562 52.6543 9.01953C52.6543 9.27734 52.5664 9.48828 52.3906 9.65234C52.2188 9.81641 51.9902 9.89844 51.7051 9.89844C51.4199 9.89844 51.1895 9.81641 51.0137 9.65234C50.8418 9.48828 50.7559 9.27734 50.7559 9.01953ZM59.668 13.8887C59.668 14.9043 59.4512 15.6973 59.0176 16.2676C58.584 16.834 57.9785 17.1172 57.2012 17.1172C56.5137 17.1172 55.9648 16.8535 55.5547 16.3262L55.4785 17H53.9551V8H55.6484V11.2285C56.0391 10.7715 56.5527 10.543 57.1895 10.543C57.9629 10.543 58.5684 10.8281 59.0059 11.3984C59.4473 11.9648 59.668 12.7637 59.668 13.7949V13.8887ZM57.9746 13.7656C57.9746 13.125 57.873 12.6582 57.6699 12.3652C57.4668 12.0684 57.1641 11.9199 56.7617 11.9199C56.2227 11.9199 55.8516 12.1406 55.6484 12.582V15.084C55.8555 15.5293 56.2305 15.752 56.7734 15.752C57.3203 15.752 57.6797 15.4824 57.8516 14.9434C57.9336 14.6855 57.9746 14.293 57.9746 13.7656ZM63.6348 17.1172C62.7051 17.1172 61.9473 16.832 61.3613 16.2617C60.7793 15.6914 60.4883 14.9316 60.4883 13.9824V13.8184C60.4883 13.1816 60.6113 12.6133 60.8574 12.1133C61.1035 11.6094 61.4512 11.2227 61.9004 10.9531C62.3535 10.6797 62.8691 10.543 63.4473 10.543C64.3145 10.543 64.9961 10.8164 65.4922 11.3633C65.9922 11.9102 66.2422 12.6855 66.2422 13.6895V14.3809H62.2051C62.2598 14.7949 62.4238 15.127 62.6973 15.377C62.9746 15.627 63.3242 15.752 63.7461 15.752C64.3984 15.752 64.9082 15.5156 65.2754 15.043L66.1074 15.9746C65.8535 16.334 65.5098 16.6152 65.0762 16.8184C64.6426 17.0176 64.1621 17.1172 63.6348 17.1172ZM63.4414 11.9141C63.1055 11.9141 62.832 12.0273 62.6211 12.2539C62.4141 12.4805 62.2812 12.8047 62.2227 13.2266H64.5781V13.0918C64.5703 12.7168 64.4688 12.4277 64.2734 12.2246C64.0781 12.0176 63.8008 11.9141 63.4414 11.9141Z" fill="white"/>
</svg>
