<svg width="20" height="15" viewBox="0 0 20 15" fill="none" xmlns="http://www.w3.org/2000/svg">
<path d="M2.8125 3.04688C2.8125 2.8125 2.72135 2.60417 2.53906 2.42188L0.78125 0.3125V0H6.25L10.5078 9.29688L14.2188 0H19.4531V0.3125L17.9297 1.75781C17.7995 1.86198 17.7474 2.00521 17.7734 2.1875V12.8125C17.7474 12.9948 17.7995 13.138 17.9297 13.2422L19.4141 14.6875V15H11.9922V14.6875L13.5156 13.2031C13.6198 13.099 13.6719 12.9557 13.6719 12.7734V4.17969L9.45312 14.9609H8.86719L3.90625 4.17969V11.4062C3.88021 11.7188 3.97135 11.9922 4.17969 12.2266L6.17188 14.6484V14.9609H0.546875V14.6484L2.53906 12.2266C2.77344 11.9922 2.86458 11.7188 2.8125 11.4062V3.04688Z" fill="white"/>
</svg>
