<svg width="60" height="46" viewBox="0 0 60 46" fill="none" xmlns="http://www.w3.org/2000/svg">
<path d="M57.002 0.185547V3.53516C52.2624 5.26693 48.5482 8.0013 45.8594 11.7383C43.1706 15.4297 41.8262 19.2806 41.8262 23.291C41.8262 24.1569 41.9629 24.7949 42.2363 25.2051C42.4186 25.4785 42.6237 25.6152 42.8516 25.6152C43.0794 25.6152 43.4212 25.4557 43.877 25.1367C45.3353 24.0885 47.181 23.5645 49.4141 23.5645C52.0117 23.5645 54.3132 24.6354 56.3184 26.7773C58.3236 28.8737 59.3262 31.3802 59.3262 34.2969C59.3262 37.3503 58.1641 40.0391 55.8398 42.3633C53.5612 44.6875 50.7812 45.8496 47.5 45.8496C43.6719 45.8496 40.3678 44.2773 37.5879 41.1328C34.8079 37.9883 33.418 33.7728 33.418 28.4863C33.418 22.334 35.3092 16.8197 39.0918 11.9434C42.8743 7.06706 48.8444 3.14779 57.002 0.185547ZM24.1211 0.185547V3.53516C19.3815 5.26693 15.6673 8.0013 12.9785 11.7383C10.2897 15.4297 8.94531 19.2806 8.94531 23.291C8.94531 24.1569 9.08203 24.7949 9.35547 25.2051C9.53776 25.4785 9.74284 25.6152 9.9707 25.6152C10.1986 25.6152 10.5404 25.4557 10.9961 25.1367C12.4544 24.0885 14.3001 23.5645 16.5332 23.5645C19.1309 23.5645 21.4323 24.6354 23.4375 26.7773C25.4427 28.8737 26.4453 31.3802 26.4453 34.2969C26.4453 37.3503 25.2832 40.0391 22.959 42.3633C20.6803 44.6875 17.9004 45.8496 14.6191 45.8496C10.791 45.8496 7.48698 44.2773 4.70703 41.1328C1.92708 37.9883 0.537109 33.7728 0.537109 28.4863C0.537109 22.334 2.42839 16.8197 6.21094 11.9434C9.99349 7.06706 15.9635 3.14779 24.1211 0.185547Z" fill="#D4D4D4"/>
</svg>
