<svg width="60" height="46" viewBox="0 0 60 46" fill="none" xmlns="http://www.w3.org/2000/svg">
<path d="M2.99805 45.8496V42.4316C7.69206 40.6999 11.3835 37.9883 14.0723 34.2969C16.7611 30.5599 18.1055 26.6862 18.1055 22.6758C18.1055 21.8099 17.9688 21.1719 17.6953 20.7617C17.5586 20.4883 17.3763 20.3516 17.1484 20.3516C16.9206 20.3516 16.556 20.5339 16.0547 20.8984C14.5964 21.9466 12.7734 22.4707 10.5859 22.4707C7.94271 22.4707 5.61849 21.4225 3.61328 19.3262C1.65365 17.1842 0.673828 14.6549 0.673828 11.7383C0.673828 8.63932 1.81315 5.95052 4.0918 3.67188C6.37044 1.34766 9.17318 0.185547 12.5 0.185547C16.2826 0.185547 19.5638 1.75781 22.3438 4.90234C25.1693 8.0013 26.582 12.194 26.582 17.4805C26.582 23.6328 24.6908 29.1471 20.9082 34.0234C17.1257 38.8997 11.1556 42.8418 2.99805 45.8496ZM35.8789 45.8496V42.4316C40.5729 40.6999 44.2643 37.9883 46.9531 34.2969C49.6419 30.5599 50.9863 26.6862 50.9863 22.6758C50.9863 21.8099 50.8496 21.1719 50.5762 20.7617C50.4395 20.4883 50.2572 20.3516 50.0293 20.3516C49.8014 20.3516 49.4368 20.5339 48.9355 20.8984C47.4772 21.9466 45.6543 22.4707 43.4668 22.4707C40.8236 22.4707 38.4993 21.4225 36.4941 19.3262C34.5345 17.1842 33.5547 14.6549 33.5547 11.7383C33.5547 8.63932 34.694 5.95052 36.9727 3.67188C39.2513 1.34766 42.054 0.185547 45.3809 0.185547C49.1634 0.185547 52.4447 1.75781 55.2246 4.90234C58.0501 8.0013 59.4629 12.194 59.4629 17.4805C59.4629 23.6328 57.5716 29.1471 53.7891 34.0234C50.0065 38.8997 44.0365 42.8418 35.8789 45.8496Z" fill="#D4D4D4"/>
</svg>
