<svg width="104" height="80" viewBox="0 0 104 80" fill="none" xmlns="http://www.w3.org/2000/svg">
<path d="M99.752 62.2175C99.752 62.9688 99.1429 63.5779 98.3916 63.5779C97.6403 63.5779 97.0312 62.9688 97.0312 62.2175C97.0312 61.4663 97.6403 60.8572 98.3916 60.8572C99.1429 60.8572 99.752 61.4663 99.752 62.2175Z" fill="white"/>
<path d="M88.8029 48.8884C88.8029 48.1372 88.1938 47.5281 87.4425 47.5281H74.3855C71.3855 47.5281 68.9453 49.9683 68.9453 52.9683V71.4655C68.9453 74.4654 71.3855 76.9056 74.3855 76.9056H98.3235C101.324 76.9056 103.764 74.4654 103.764 71.4655V52.9689C103.764 49.969 101.324 47.5287 98.3235 47.5287H94.2431C93.4918 47.5287 92.8827 48.1378 92.8827 48.8891V70.1064C92.8827 70.8577 93.4918 71.4668 94.2431 71.4668C94.9943 71.4668 95.6034 70.8577 95.6034 70.1064V50.2488H98.3235C99.8235 50.2488 101.044 51.4689 101.044 52.9689V71.4661C101.044 72.9661 99.8235 74.1862 98.3235 74.1862H74.3855C72.8855 74.1862 71.6654 72.9661 71.6654 71.4661V52.9689C71.6654 51.4689 72.8855 50.2488 74.3855 50.2488H87.4425C88.1944 50.2488 88.8029 49.6397 88.8029 48.8884Z" fill="white"/>
<path d="M84.7949 27.3101C84.7949 26.4498 85.493 25.7517 86.3527 25.7517C87.2137 25.7517 87.9111 26.4498 87.9111 27.3101C87.9111 28.1705 87.2137 28.8686 86.3527 28.8686C85.493 28.8686 84.7949 28.1705 84.7949 27.3101Z" fill="white"/>
<path d="M86.3527 22.6349C87.2137 22.6349 87.9111 21.9369 87.9111 21.0765C87.9111 20.2161 87.2137 19.5181 86.3527 19.5181C85.4923 19.5181 84.7949 20.2161 84.7949 21.0765C84.7943 21.9369 85.4923 22.6349 86.3527 22.6349Z" fill="white"/>
<path d="M86.3527 16.479C87.2137 16.479 87.9111 15.7816 87.9111 14.9206C87.9111 14.0602 87.2137 13.3628 86.3527 13.3628C85.4923 13.3628 84.7949 14.0608 84.7949 14.9206C84.7943 15.7816 85.4923 16.479 86.3527 16.479Z" fill="white"/>
<path d="M86.3527 41.4059C87.2137 41.4059 87.9111 40.7079 87.9111 39.8475C87.9111 38.9871 87.2137 38.2891 86.3527 38.2891C85.4923 38.2891 84.7949 38.9871 84.7949 39.8475C84.7943 40.7079 85.4923 41.4059 86.3527 41.4059Z" fill="white"/>
<path d="M86.3527 35.2495C87.2137 35.2495 87.9111 34.5521 87.9111 33.6911C87.9111 32.8307 87.2137 32.1333 86.3527 32.1333C85.4923 32.1333 84.7949 32.8313 84.7949 33.6911C84.7943 34.5521 85.4923 35.2495 86.3527 35.2495Z" fill="white"/>
<path d="M80.1209 16.479C80.9813 16.479 81.6793 15.7816 81.6793 14.9206C81.6793 14.0602 80.9813 13.3628 80.1209 13.3628C79.2605 13.3628 78.5625 14.0608 78.5625 14.9206C78.5625 15.7816 79.2605 16.479 80.1209 16.479Z" fill="white"/>
<path d="M75.445 14.9206C75.445 14.0602 74.7476 13.3628 73.8865 13.3628C73.0262 13.3628 72.3281 14.0608 72.3281 14.9206C72.3281 15.7816 73.0262 16.479 73.8865 16.479C74.7469 16.479 75.445 15.7816 75.445 14.9206Z" fill="white"/>
<path d="M18.6335 79.6265H5.4402C2.44023 79.6265 0 77.1856 0 74.1863V50.2483C0 47.2483 2.44088 44.8081 5.4402 44.8081H18.6329C21.6329 44.8081 24.0731 47.249 24.0731 50.2483V67.3936C24.0731 68.1448 23.464 68.7539 22.7127 68.7539C21.9614 68.7539 21.3523 68.1448 21.3523 67.3936V50.2483C21.3523 48.7483 20.1322 47.5282 18.6322 47.5282H5.4402C3.94021 47.5282 2.7201 48.7483 2.7201 50.2483V74.1863C2.7201 75.6863 3.94021 76.9064 5.4402 76.9064H18.6329C20.1329 76.9064 21.353 75.6863 21.353 74.1863C21.353 73.435 21.9621 72.826 22.7134 72.826C23.4647 72.826 24.0737 73.435 24.0737 74.1863C24.0737 77.1856 21.6335 79.6265 18.6335 79.6265Z" fill="white"/>
<path d="M13.3965 73.4463C13.3965 72.695 12.7874 72.0859 12.0362 72.0859C11.2849 72.0859 10.6758 72.695 10.6758 73.4463C10.6758 74.1976 11.2849 74.8067 12.0362 74.8067C12.7874 74.8067 13.3965 74.1976 13.3965 73.4463Z" fill="white"/>
<path d="M14.7573 51.0044C14.7573 50.2531 14.1482 49.644 13.3969 49.644H10.6768C9.92549 49.644 9.31641 50.2531 9.31641 51.0044C9.31641 51.7557 9.92549 52.3648 10.6768 52.3648H13.3969C14.1482 52.3648 14.7573 51.7557 14.7573 51.0044Z" fill="white"/>
<path d="M13.5947 27.3294C13.5947 28.1898 12.8967 28.8878 12.0369 28.8878C11.1759 28.8878 10.4785 28.1898 10.4785 27.3294C10.4785 26.469 11.1759 25.771 12.0369 25.771C12.8967 25.771 13.5947 26.469 13.5947 27.3294Z" fill="white"/>
<path d="M12.035 22.6542C12.8954 22.6542 13.5928 21.9562 13.5928 21.0958C13.5928 20.2354 12.8947 19.5374 12.035 19.5374C11.174 19.5374 10.4766 20.2354 10.4766 21.0958C10.4766 21.9562 11.174 22.6542 12.035 22.6542Z" fill="white"/>
<path d="M12.035 16.4988C12.8954 16.4988 13.5928 15.8014 13.5928 14.9403C13.5928 14.08 12.8947 13.3826 12.035 13.3826C11.174 13.3826 10.4766 14.0806 10.4766 14.9403C10.4766 15.8014 11.174 16.4988 12.035 16.4988Z" fill="white"/>
<path d="M12.035 41.3864C12.8954 41.3864 13.5928 40.6883 13.5928 39.828C13.5928 38.9676 12.8947 38.2695 12.035 38.2695C11.174 38.2695 10.4766 38.9676 10.4766 39.828C10.4766 40.6883 11.174 41.3864 12.035 41.3864Z" fill="white"/>
<path d="M12.035 35.23C12.8954 35.23 13.5928 34.5326 13.5928 33.6715C13.5928 32.8112 12.8947 32.1138 12.035 32.1138C11.174 32.1138 10.4766 32.8118 10.4766 33.6715C10.4766 34.5326 11.174 35.23 12.035 35.23Z" fill="white"/>
<path d="M18.2713 16.4983C19.1317 16.4983 19.8297 15.8009 19.8297 14.9399C19.8297 14.0795 19.1317 13.3821 18.2713 13.3821C17.4109 13.3821 16.7129 14.0801 16.7129 14.9399C16.7129 15.8009 17.4103 16.4983 18.2713 16.4983Z" fill="white"/>
<path d="M22.9453 14.9399C22.9453 15.8009 23.6427 16.4983 24.5037 16.4983C25.3641 16.4983 26.0622 15.8009 26.0622 14.9399C26.0622 14.0795 25.3641 13.3821 24.5037 13.3821C23.6427 13.3814 22.9453 14.0795 22.9453 14.9399Z" fill="white"/>
<path d="M64.3627 12.2271V5.43435C64.3627 3.93632 63.1439 2.7175 61.6459 2.7175H37.7351C36.2371 2.7175 35.0183 3.93632 35.0183 5.43435V19.0199C35.0183 20.5179 36.2371 21.7368 37.7351 21.7368H61.6459C63.1439 21.7368 64.3627 20.5179 64.3627 19.0199C64.3627 18.2693 64.9712 17.6615 65.7212 17.6615C66.4712 17.6615 67.0796 18.2699 67.0796 19.0199C67.0796 22.0166 64.642 24.4543 61.6452 24.4543H51.0486V27.1633H55.8037C56.5544 27.1633 57.1622 27.7718 57.1622 28.5217C57.1622 29.2724 56.5537 29.8802 55.8037 29.8802H43.5766C42.826 29.8802 42.2182 29.2717 42.2182 28.5217C42.2182 27.7711 42.8266 27.1633 43.5766 27.1633H48.3318V24.4543H37.7351C34.7384 24.4543 32.3008 22.0166 32.3008 19.0199V5.43435C32.3008 2.43763 34.7384 0 37.7351 0H61.6459C64.6426 0 67.0802 2.43763 67.0802 5.43435V12.2271C67.0802 12.9778 66.4718 13.5856 65.7218 13.5856C64.9718 13.5856 64.3627 12.9778 64.3627 12.2271ZM60.2193 14.944C60.9699 14.944 61.5777 14.3355 61.5777 13.5856V8.8986C61.5777 7.02589 60.0543 5.50188 58.181 5.50188H53.4259C52.6752 5.50188 52.0674 6.11032 52.0674 6.86031C52.0674 7.61095 52.6759 8.21873 53.4259 8.21873H57.0745L51.8343 13.4589C51.5694 13.7239 51.1389 13.7239 50.8739 13.4589L48.322 10.9077C47.6701 10.2551 46.8039 9.90183 45.8798 9.91287C44.9578 9.92391 44.0987 10.2979 43.4617 10.9655L37.9734 16.7232C37.4553 17.266 37.476 18.1264 38.0195 18.6439C38.2825 18.8946 38.6195 19.0193 38.9565 19.0193C39.315 19.0193 39.6728 18.8784 39.9397 18.5985L45.4279 12.8408C45.6 12.6609 45.8045 12.6317 45.9117 12.6304C46.0182 12.6284 46.224 12.6531 46.4 12.8291L48.9512 15.381C50.2752 16.705 52.4304 16.705 53.7544 15.381L58.8589 10.2765V13.5856C58.8609 14.3362 59.4686 14.944 60.2193 14.944Z" fill="white"/>
<path d="M91.3891 62.2731C90.9339 62.1894 90.4969 62.49 90.4131 62.9452C90.0651 64.8303 88.419 66.1984 86.4982 66.1984C84.3028 66.1984 82.5171 64.4127 82.5171 62.2173C82.5171 60.0219 84.3034 58.2362 86.4982 58.2362C86.8632 58.2362 87.2242 58.2855 87.5716 58.3823C88.0177 58.5069 88.48 58.2459 88.604 57.8005C88.7287 57.3544 88.4677 56.8927 88.0222 56.768C87.5281 56.6303 87.0151 56.5596 86.4976 56.5596C83.3781 56.5596 80.8398 59.0979 80.8398 62.2173C80.8398 65.3367 83.3781 67.875 86.4976 67.875C89.2268 67.875 91.5663 65.9296 92.0605 63.2498C92.1456 62.7939 91.8443 62.3569 91.3891 62.2731Z" fill="white"/>
<path d="M85.4149 61.2481C85.0876 60.9208 84.5571 60.9208 84.2298 61.2481C83.9026 61.5754 83.9026 62.1059 84.2298 62.4331L85.4636 63.6669C85.7493 63.9526 86.1246 64.0955 86.5006 64.0955C86.874 64.0955 87.2473 63.9545 87.5324 63.6727L91.1947 60.0475C91.5239 59.7221 91.5265 59.191 91.2012 58.8624C90.8752 58.5338 90.3447 58.5306 90.0161 58.8566L86.5019 62.3351L85.4149 61.2481Z" fill="white"/>
<path d="M12.3434 62.2578C12.0155 62.1974 11.7005 62.4143 11.6395 62.7422C11.3889 64.1006 10.2025 65.087 8.81811 65.087C7.23566 65.087 5.94866 63.8 5.94866 62.2175C5.94866 60.6351 7.23566 59.3481 8.81811 59.3481C9.08109 59.3481 9.34148 59.3838 9.59213 59.4533C9.91355 59.5429 10.2467 59.3552 10.3363 59.0338C10.4259 58.7124 10.2382 58.3793 9.9168 58.2896C9.56031 58.1903 9.19083 58.1396 8.81811 58.1396C6.56943 58.1396 4.74023 59.9688 4.74023 62.2175C4.74023 64.4662 6.56943 66.2954 8.81811 66.2954C10.785 66.2954 12.4713 64.8935 12.8278 62.9617C12.8882 62.6331 12.6713 62.3182 12.3434 62.2578Z" fill="white"/>
<path d="M8.03718 61.5188C7.80147 61.2824 7.419 61.2824 7.18264 61.5188C6.94693 61.7545 6.94693 62.137 7.18264 62.3733L8.07224 63.2629C8.27808 63.4688 8.54886 63.5714 8.81964 63.5714C9.08846 63.5714 9.35794 63.4701 9.56313 63.2662L12.2027 60.6532C12.4397 60.4188 12.4417 60.0364 12.2073 59.7987C11.9722 59.5617 11.5897 59.5597 11.3527 59.7941L8.81964 62.3013L8.03718 61.5188Z" fill="white"/>
</svg>
