<svg width="143" height="43" viewBox="0 0 143 43" fill="none" xmlns="http://www.w3.org/2000/svg">
<path d="M72.5186 19.4082C73.5246 19.4082 74.3399 20.2235 74.3399 21.2295C74.3399 22.2356 73.5246 23.0509 72.5186 23.0509C71.5126 23.0509 70.6973 22.2356 70.6973 21.2295C70.6973 20.2245 71.5126 19.4082 72.5186 19.4082Z" fill="white"/>
<path d="M67.0548 21.2295C67.0548 20.2245 66.2395 19.4082 65.2334 19.4082C64.2274 19.4082 63.4121 20.2235 63.4121 21.2295C63.4121 22.2356 64.2274 23.0509 65.2334 23.0509C66.2385 23.0509 67.0548 22.2365 67.0548 21.2295Z" fill="white"/>
<path d="M59.8575 21.23C59.8575 20.225 59.0422 19.4087 58.0362 19.4087C57.0301 19.4087 56.2148 20.224 56.2148 21.23C56.2148 22.236 57.0301 23.0513 58.0362 23.0513C59.0422 23.0513 59.8575 22.237 59.8575 21.23Z" fill="white"/>
<path d="M88.9454 21.2295C88.9454 20.2245 88.1301 19.4082 87.1241 19.4082C86.118 19.4082 85.3027 20.2235 85.3027 21.2295C85.3027 22.2356 86.118 23.0509 87.1241 23.0509C88.1301 23.0509 88.9454 22.2365 88.9454 21.2295Z" fill="white"/>
<path d="M81.752 21.2295C81.752 20.2245 80.9367 19.4082 79.9307 19.4082C78.9247 19.4082 78.1094 20.2235 78.1094 21.2295C78.1094 22.2356 78.9247 23.0509 79.9307 23.0509C80.9367 23.0509 81.752 22.2365 81.752 21.2295Z" fill="white"/>
<path d="M110.102 39.966C109.321 39.9782 108.691 40.6145 108.691 41.3981C108.691 42.1824 109.321 42.8184 110.102 42.8306L134.935 42.8319C135.727 42.8319 136.369 42.1899 136.369 41.3985C136.369 40.6067 135.726 39.9648 134.935 39.9648H131.845C131.988 39.5364 132.067 39.0787 132.067 38.6029C132.067 37.8111 131.425 37.1692 130.633 37.1692C129.842 37.1692 129.2 37.8111 129.2 38.6029C129.2 39.2379 128.784 39.7771 128.212 39.9648H116.855C116.282 39.7768 115.867 39.2379 115.867 38.6029V33.0832H121.243V33.8C121.243 34.5918 121.885 35.2337 122.677 35.2337C123.468 35.2337 124.11 34.5915 124.11 33.8V33.0832H132.067C132.859 33.0832 133.501 32.4413 133.501 31.6495V25.9147C133.501 25.1229 132.859 24.481 132.067 24.481H112.999C112.208 24.481 111.566 25.1229 111.566 25.9147V31.6492C111.566 32.4409 112.208 33.0829 112.999 33.0829V38.6026C112.999 39.0787 113.078 39.5361 113.222 39.9644L110.102 39.966ZM114.433 27.3487H130.633V30.2158H114.433V27.3487Z" fill="white"/>
<path d="M142.199 23.0426L132.936 13.647C132.634 13.3407 132.221 13.1681 131.791 13.1681H129.306C128.919 10.3719 126.838 8.1111 124.135 7.45794V1.60698C124.135 0.719349 123.415 0 122.528 0C121.641 0 120.921 0.719349 120.921 1.60698V7.45825C118.218 8.11141 116.137 10.3725 115.75 13.1684H113.265C112.835 13.1684 112.423 13.3407 112.12 13.6473L102.857 23.0426C102.24 23.6683 102.24 24.6733 102.857 25.299L107.297 31.4946C107.612 31.8137 108.027 31.9736 108.442 31.9736C108.849 31.9736 109.257 31.8193 109.57 31.5112C110.202 30.888 110.209 29.8705 109.586 29.2385L106.259 24.1713L113.937 16.383H131.119L138.798 24.1713L135.476 29.2323C134.853 29.8642 134.86 30.8817 135.492 31.5049C136.124 32.1275 137.142 32.1209 137.765 31.4887L142.199 25.2993C142.816 24.6733 142.816 23.6683 142.199 23.0426ZM122.528 10.9064C124.074 10.9064 125.375 11.9604 125.758 13.3866H119.298C119.682 11.9607 120.983 10.9064 122.528 10.9064Z" fill="white"/>
<path d="M23.4112 42.832H36.8317C36.8317 42.832 41.1919 42.7547 41.1919 37.9943C41.1919 37.0886 40.4579 36.3542 39.5518 36.3542C38.6464 36.3542 37.9121 37.0886 37.9121 37.9943C37.9121 38.7208 37.4367 39.3373 36.7812 39.5525H23.7911C23.1356 39.3376 22.6608 38.7211 22.6608 37.9943V31.6805H28.8107V32.5004C28.8107 33.4059 29.5448 34.1405 30.4508 34.1405C31.3562 34.1405 32.0906 33.4062 32.0906 32.5004V31.6805H41.1925C42.0985 31.6805 42.8326 30.9465 42.8326 30.0405V23.4804C42.8326 22.5744 42.0985 21.8403 41.1925 21.8403H19.3803C18.4743 21.8403 17.7402 22.5744 17.7402 23.4804V30.0402C17.7402 30.9462 18.4743 31.6802 19.3803 31.6802V37.994C19.3803 42.7045 23.4112 42.832 23.4112 42.832ZM21.0204 25.1205H39.5518V28.4004H21.0204V25.1205Z" fill="white"/>
<path d="M20.3922 3.15049C19.2148 3.14867 18.0371 3.1384 16.8603 3.15834C16.5675 3.16318 16.5131 3.0707 16.5239 2.80657C16.5445 2.31337 16.5357 1.81865 16.5285 1.32454C16.5176 0.565999 15.9987 0.016584 15.2456 0.0102376C13.5741 -0.00305956 11.9026 -0.00396618 10.2314 0.010842C9.48943 0.0174906 8.97658 0.567208 8.97054 1.30701C8.96661 1.82198 8.95361 2.33785 8.97658 2.85191C8.98837 3.11301 8.89468 3.15744 8.65956 3.15532C7.45073 3.14444 6.24159 3.14475 5.03276 3.15139C2.21618 3.16711 0.00219602 5.3965 0.00189381 8.21157C0.00159161 11.3654 0.00189381 14.519 0.00189381 17.6728C0.00189381 20.8581 -0.00324373 24.0434 0.00340486 27.2287C0.00884461 29.8745 2.18505 32.1459 4.81819 32.1683C9.02282 32.2039 10.1389 32.1785 14.3438 32.1776C14.7249 32.1776 15.0395 32.019 15.2761 31.727C15.6119 31.3127 15.6669 30.8428 15.4378 30.3686C15.2015 29.879 14.7829 29.6539 14.238 29.6542C10.1909 29.6557 9.23255 29.6557 5.18538 29.6545C3.58035 29.6542 2.52594 28.5962 2.52534 26.9872C2.52443 24.5378 2.52503 22.0884 2.52503 19.639C2.52503 15.8544 2.52322 12.0702 2.52594 8.28562C2.52715 6.76158 3.60845 5.6842 5.12554 5.6839C6.1872 5.6836 7.24916 5.6839 8.31082 5.6839C8.96691 5.6839 8.94999 5.68451 8.97265 6.33214C9.02856 7.94412 9.7859 9.12938 11.2643 9.76432C12.7309 10.3941 14.109 10.133 15.3033 9.07196C16.1435 8.32581 16.5161 7.3533 16.5285 6.23845C16.5345 5.6839 16.5306 5.6839 17.0957 5.6839C18.1891 5.6839 19.2822 5.6836 20.3756 5.6839C21.8887 5.6842 22.9734 6.77125 22.9737 8.28924C22.9743 11.2748 22.9734 14.7027 22.974 17.6882C22.9743 18.5081 23.4911 19.0615 24.2496 19.0581C24.9891 19.0548 25.4965 18.5009 25.4968 17.6949C25.4971 14.6988 25.4968 11.2606 25.4968 8.26446C25.4974 5.3687 23.2874 3.15472 20.3922 3.15049ZM14.0017 6.22183C13.9938 6.84831 13.6539 7.31613 13.1392 7.48537C12.633 7.65188 12.0905 7.48567 11.7605 7.05986C11.5741 6.819 11.4919 6.54278 11.4925 6.23906C11.494 5.67242 11.4928 5.10578 11.4928 4.53944C11.4928 3.95194 11.4994 3.36415 11.4888 2.77666C11.4855 2.58989 11.5299 2.52068 11.7312 2.52431C12.413 2.5367 13.0951 2.53428 13.7772 2.52552C13.9564 2.5231 14.0105 2.58143 14.0093 2.75913C14.0029 3.91356 14.0162 5.068 14.0017 6.22183Z" fill="white"/>
<path d="M19.1824 16.1631H6.0176C5.30439 16.1631 4.72656 15.585 4.72656 14.8721C4.72656 14.1589 5.30469 13.5811 6.0176 13.5811H19.1821C19.8953 13.5811 20.4731 14.1592 20.4731 14.8721C20.4734 15.585 19.8953 16.1631 19.1824 16.1631Z" fill="white"/>
<path d="M11.7142 20.7334H6.0176C5.30439 20.7334 4.72656 20.1553 4.72656 19.4424C4.72656 18.7292 5.30469 18.1514 6.0176 18.1514H11.7142C12.4274 18.1514 13.0053 18.7295 13.0053 19.4424C13.0056 20.1556 12.4274 20.7334 11.7142 20.7334Z" fill="white"/>
<path d="M14.4541 25.3033H6.0176C5.30439 25.3033 4.72656 24.7254 4.72656 24.0122C4.72656 23.299 5.30469 22.7212 6.0176 22.7212H14.4541C15.1673 22.7212 15.7451 23.2993 15.7451 24.0122C15.7454 24.7254 15.1673 25.3033 14.4541 25.3033Z" fill="white"/>
</svg>
