<svg width="140" height="41" viewBox="0 0 140 41" fill="none" xmlns="http://www.w3.org/2000/svg">
<path d="M136.683 16.9192V8.62559C136.683 6.79685 135.194 5.30863 133.366 5.30863H104.173C102.344 5.30863 100.856 6.79685 100.856 8.62559V25.2128C100.856 27.0415 102.344 28.5297 104.173 28.5297H133.366C135.194 28.5297 136.683 27.0415 136.683 25.2128C136.683 24.296 137.426 23.5543 138.341 23.5543C139.257 23.5543 140 24.2972 140 25.2128C140 28.8714 137.023 31.8479 133.365 31.8479H120.426V35.1553H126.232C127.148 35.1553 127.89 35.8982 127.89 36.8138C127.89 37.7305 127.147 38.4723 126.232 38.4723H111.303C110.386 38.4723 109.645 37.7293 109.645 36.8138C109.645 35.897 110.387 35.1553 111.303 35.1553H117.108V31.8479H104.17C100.512 31.8479 97.5352 28.8714 97.5352 25.2128V8.62559C97.5352 4.96693 100.512 1.99048 104.17 1.99048H133.363C137.022 1.99048 139.998 4.96693 139.998 8.62559V16.9192C139.998 17.8359 139.256 18.5777 138.34 18.5777C137.424 18.5777 136.683 17.8359 136.683 16.9192ZM131.624 20.2373C132.541 20.2373 133.282 19.4944 133.282 18.5788V12.8557C133.282 10.5686 131.423 8.70893 129.136 8.70893H123.33C122.414 8.70893 121.672 9.45185 121.672 10.3674C121.672 11.2842 122.415 12.0259 123.33 12.0259H127.785L121.387 18.4241C121.063 18.7479 120.538 18.7479 120.215 18.4241L117.099 15.3083C116.302 14.5118 115.245 14.0796 114.118 14.0939C112.991 14.107 111.944 14.5642 111.166 15.3798L104.466 22.4089C103.833 23.0721 103.858 24.1222 104.521 24.7544C104.843 25.0604 105.255 25.2128 105.666 25.2128C106.104 25.2128 106.541 25.0401 106.866 24.6984L113.566 17.6681C113.776 17.4478 114.026 17.4133 114.157 17.4109C114.287 17.4085 114.538 17.4383 114.753 17.6538L117.869 20.7695C119.486 22.3863 122.117 22.3863 123.734 20.7695L129.967 14.5368V18.5765C129.965 19.4944 130.708 20.2373 131.624 20.2373Z" fill="white"/>
<path d="M70.5694 18.5781C71.5668 18.5781 72.3751 19.3864 72.3751 20.3838C72.3751 21.3812 71.5668 22.1895 70.5694 22.1895C69.572 22.1895 68.7637 21.3812 68.7637 20.3838C68.7637 19.3874 69.572 18.5781 70.5694 18.5781Z" fill="white"/>
<path d="M65.1524 20.3838C65.1524 19.3874 64.3441 18.5781 63.3467 18.5781C62.3493 18.5781 61.541 19.3864 61.541 20.3838C61.541 21.3812 62.3493 22.1895 63.3467 22.1895C64.3431 22.1895 65.1524 21.3822 65.1524 20.3838Z" fill="white"/>
<path d="M58.0196 20.3843C58.0196 19.3879 57.2113 18.5786 56.2139 18.5786C55.2165 18.5786 54.4082 19.3869 54.4082 20.3843C54.4082 21.3817 55.2165 22.19 56.2139 22.19C57.2113 22.19 58.0196 21.3827 58.0196 20.3843Z" fill="white"/>
<path d="M86.8575 20.3838C86.8575 19.3874 86.0492 18.5781 85.0518 18.5781C84.0544 18.5781 83.2461 19.3864 83.2461 20.3838C83.2461 21.3812 84.0544 22.1895 85.0518 22.1895C86.0492 22.1895 86.8575 21.3822 86.8575 20.3838Z" fill="white"/>
<path d="M79.7247 20.3838C79.7247 19.3874 78.9164 18.5781 77.919 18.5781C76.9216 18.5781 76.1133 19.3864 76.1133 20.3838C76.1133 21.3812 76.9216 22.1895 77.919 22.1895C78.9164 22.1895 79.7247 21.3822 79.7247 20.3838Z" fill="white"/>
<path d="M22.0617 37.2454C22.0617 38.1617 21.319 38.9043 20.4027 38.9043H6.63504C2.9764 38.9043 0 35.9279 0 32.2693V6.63504C0 2.9767 2.9764 0 6.63504 0L12.9399 0.00213587C16.0826 0.0027461 18.7216 2.20049 19.4026 5.13905L37.4877 5.13936H37.4883C38.8168 5.13936 40.0665 5.65684 41.0063 6.59659C41.946 7.53635 42.4635 8.7861 42.4635 10.1155V20.5687C42.4635 21.485 41.7208 22.2276 40.8052 22.2276C39.8889 22.2276 39.1463 21.485 39.1463 20.5687V15.0919L9.5376 15.0922C8.62133 15.0922 7.87868 14.3496 7.87868 13.4333C7.87868 12.517 8.62133 11.7744 9.5376 11.7744L39.1463 11.7741V10.1152C39.1463 9.67185 38.9736 9.25567 38.6602 8.94232C38.3469 8.62896 37.9307 8.45657 37.4874 8.45657L18.0579 8.45627C18.0106 8.46023 17.9627 8.46237 17.9142 8.46237C17.0001 8.46237 16.2584 7.72277 16.2553 6.80895C16.2553 6.80743 16.2553 6.80529 16.2553 6.80376V6.63656C16.2553 4.8077 14.7673 3.31965 12.9384 3.31935L6.63381 3.31721C4.80526 3.31721 3.31691 4.80556 3.31691 6.63473V32.269C3.31691 34.0981 4.80526 35.5865 6.63442 35.5865H20.4021C21.3193 35.5868 22.0617 36.3292 22.0617 37.2454Z" fill="white"/>
<path d="M41.7754 32.9156L40.1791 31.7657C40.1821 31.6827 40.1836 31.5994 40.1836 31.5164C40.1836 31.4157 40.1806 31.3147 40.1763 31.214C40.1748 31.1817 40.1726 31.1493 40.1708 31.1173C40.1687 31.0856 40.1678 31.0538 40.1653 31.0218L41.8123 29.7641C42.4992 29.2396 42.6682 28.2758 42.2007 27.549L41.2955 26.1406C40.8683 25.4757 40.0308 25.2045 39.2945 25.4931L37.509 26.1937C37.3445 26.071 37.174 25.9581 36.9995 25.8516C36.994 25.848 36.9882 25.8446 36.9827 25.8409C36.907 25.7949 36.8298 25.7512 36.752 25.7085C36.73 25.6963 36.7081 25.6835 36.6855 25.6716C36.6165 25.6347 36.547 25.599 36.4765 25.5645C36.4435 25.5483 36.41 25.5319 36.3764 25.516C36.3441 25.5007 36.3126 25.484 36.2803 25.4693L35.9276 23.5096C35.7854 22.7193 35.098 22.1448 34.2949 22.1448H32.719C31.8918 22.1448 31.191 22.7541 31.0762 23.5736L30.8102 25.4711C30.3315 25.6881 29.8805 25.9615 29.4652 26.2858L27.5577 25.6347C26.7863 25.3711 25.9378 25.7076 25.5561 26.4283L24.7418 27.9658C24.3427 28.72 24.5803 29.654 25.2922 30.1251L26.9203 31.203C26.9154 31.308 26.913 31.4126 26.913 31.5173C26.913 31.6186 26.916 31.7199 26.9209 31.8209C26.9224 31.8557 26.9249 31.8898 26.9267 31.9246C26.9288 31.9594 26.9303 31.9939 26.9328 32.0287L25.3441 33.2876C24.7085 33.791 24.5303 34.6801 24.9218 35.3895L25.6992 36.7979C26.1029 37.5287 26.9862 37.8457 27.7624 37.5381L29.565 36.8236C29.8158 37.0118 30.08 37.1799 30.354 37.331C30.3705 37.3401 30.3867 37.3493 30.4032 37.3581C30.4758 37.3972 30.549 37.4347 30.6228 37.4707C30.6537 37.486 30.6845 37.5012 30.7156 37.5159C30.7492 37.5317 30.7818 37.5491 30.816 37.5644L31.1687 39.5241C31.3109 40.3144 31.9983 40.8889 32.8014 40.8889H34.2943C35.109 40.8889 35.8034 40.297 35.9322 39.4921L36.2376 37.5839C36.7926 37.3383 37.3094 37.0173 37.7781 36.6286L39.6634 37.1863C40.4332 37.414 41.2558 37.0579 41.6161 36.3409L42.2868 35.0069C42.6535 34.2786 42.4363 33.3922 41.7754 32.9156ZM36.8484 31.8603C36.8478 31.8651 36.8472 31.87 36.8466 31.8749C36.8411 31.9262 36.8347 31.9774 36.8268 32.0281C36.8237 32.0473 36.82 32.0656 36.8164 32.0848C36.8103 32.1205 36.8045 32.1565 36.7969 32.1916C36.6782 32.7625 36.4124 33.2796 36.0414 33.7019C35.9932 33.7565 35.9441 33.8099 35.8931 33.8612C35.8821 33.8725 35.8699 33.8829 35.8586 33.8941C35.8187 33.9329 35.7781 33.9707 35.7363 34.0073C35.7143 34.0269 35.6923 34.0461 35.6698 34.065C35.6234 34.1035 35.5764 34.141 35.5285 34.1764C35.4989 34.1987 35.4684 34.2197 35.4382 34.2411C35.4116 34.2594 35.3848 34.2774 35.3579 34.2948C35.3088 34.3268 35.2585 34.3576 35.2075 34.3875C35.1767 34.4052 35.1459 34.4232 35.1144 34.44C35.0812 34.4577 35.0473 34.4751 35.0138 34.4916C34.9771 34.5099 34.9405 34.527 34.9033 34.5434C34.8646 34.5605 34.8252 34.5773 34.7858 34.5935C34.7379 34.6127 34.69 34.631 34.6409 34.6481C34.6174 34.6563 34.5936 34.6646 34.5698 34.6725C34.5018 34.6942 34.4334 34.7146 34.3642 34.732C34.103 34.7982 33.8299 34.8339 33.5486 34.8339C33.2401 34.8339 32.942 34.7909 32.6589 34.7119C32.6122 34.699 32.5661 34.685 32.5207 34.6701C32.4935 34.6612 32.4664 34.6524 32.4395 34.6426C32.3992 34.6286 32.3596 34.6127 32.3196 34.5968C32.2778 34.5804 32.2363 34.5624 32.1951 34.544C32.1603 34.5285 32.1258 34.5126 32.0914 34.4961C32.0599 34.4806 32.0291 34.4647 31.9983 34.4482C31.9699 34.4333 31.9416 34.4174 31.9138 34.4016C31.8699 34.3765 31.8265 34.3506 31.7838 34.3238C31.7499 34.3024 31.7167 34.281 31.6837 34.2585C31.6557 34.2392 31.6279 34.2194 31.6004 34.1993C31.5724 34.1788 31.5443 34.1578 31.5168 34.1364C31.4921 34.1169 31.4671 34.0983 31.443 34.0781C31.3975 34.0406 31.353 34.0015 31.3087 33.9616C31.288 33.9424 31.2679 33.9228 31.2477 33.9033C31.2169 33.874 31.1867 33.8435 31.1574 33.8127C30.755 33.3938 30.4614 32.8699 30.3223 32.2868C30.3113 32.2407 30.301 32.1944 30.2921 32.1483C30.2881 32.1291 30.2851 32.1101 30.2817 32.0909C30.2741 32.0467 30.2671 32.0018 30.261 31.9573C30.2585 31.9378 30.2558 31.9185 30.2537 31.899C30.2482 31.8526 30.2442 31.8062 30.2408 31.7599C30.2399 31.7428 30.2378 31.7251 30.2369 31.7077C30.2332 31.6442 30.2311 31.5808 30.2311 31.5173C30.2311 31.456 30.2329 31.395 30.2363 31.3336C30.2369 31.3257 30.2375 31.3184 30.2384 31.311C30.2418 31.2555 30.2466 31.2006 30.2527 31.1454C30.253 31.1405 30.254 31.1359 30.2543 31.131C30.2613 31.0727 30.2695 31.0148 30.2796 30.9565C30.2799 30.9534 30.2805 30.9507 30.2811 30.9477C30.2912 30.8894 30.3028 30.8314 30.3159 30.7737C30.4544 30.1708 30.758 29.6302 31.1757 29.2018C31.1879 29.1893 31.2004 29.1762 31.2129 29.1639C31.2456 29.1313 31.2788 29.0996 31.313 29.0684C31.3213 29.0605 31.3301 29.0532 31.339 29.0453C31.407 28.9842 31.4775 28.926 31.551 28.8707C31.5574 28.8655 31.5638 28.8607 31.5708 28.8555C31.6114 28.8253 31.6529 28.796 31.695 28.7673C31.6953 28.767 31.6956 28.7667 31.6962 28.7664C31.7777 28.7118 31.8613 28.6605 31.9477 28.6129C31.9583 28.6071 31.9684 28.6013 31.9791 28.5958C32.0203 28.5736 32.0621 28.5519 32.1045 28.5314C32.1188 28.5244 32.1335 28.518 32.1478 28.5113C32.2146 28.4802 32.2827 28.4509 32.3516 28.4243C32.38 28.4131 32.4087 28.4021 32.4377 28.3917C32.4706 28.3801 32.5039 28.3688 32.5371 28.3581C32.5835 28.3435 32.6302 28.3295 32.6772 28.3169C32.9551 28.2413 33.2471 28.2001 33.5486 28.2001C33.8568 28.2001 34.1549 28.2431 34.438 28.3221C34.4844 28.3349 34.5298 28.3487 34.5756 28.3636C34.6022 28.3725 34.629 28.3813 34.6553 28.3908C34.6958 28.4051 34.7355 28.4201 34.7752 28.4362C34.8121 28.4509 34.8484 28.4665 34.8847 28.4823C34.9253 28.5 34.9652 28.5183 35.0049 28.5379C35.0336 28.5522 35.062 28.5668 35.09 28.5818C35.1221 28.5986 35.1541 28.6166 35.1858 28.6346C35.2118 28.6495 35.238 28.6639 35.2636 28.6794C35.3143 28.7102 35.3637 28.7423 35.4122 28.7752C35.4354 28.7911 35.4583 28.8076 35.4809 28.8241C35.5148 28.8482 35.5483 28.8732 35.581 28.8988C35.6017 28.9147 35.6222 28.9305 35.6423 28.947C35.6908 28.9864 35.7387 29.0276 35.7854 29.0703C35.7997 29.0834 35.8135 29.0971 35.8278 29.1109C35.8647 29.1459 35.9007 29.1816 35.9361 29.218C36.341 29.6384 36.6361 30.1644 36.7752 30.7509C36.7856 30.7945 36.7956 30.8387 36.8042 30.883C36.8084 30.9034 36.8115 30.9242 36.8155 30.9449C36.8228 30.9879 36.8295 31.0309 36.8353 31.0743C36.8383 31.095 36.8408 31.1155 36.8435 31.1362C36.8487 31.1817 36.8527 31.2271 36.856 31.2729C36.8573 31.2912 36.8591 31.3092 36.86 31.3272C36.864 31.3907 36.8661 31.4541 36.8661 31.5176C36.8664 31.6311 36.86 31.7458 36.8484 31.8603Z" fill="white"/>
</svg>
