<svg width="95" height="80" viewBox="0 0 95 80" fill="none" xmlns="http://www.w3.org/2000/svg">
<path d="M76.6484 35.5758C76.6484 34.853 77.2345 34.2676 77.9566 34.2676C78.6794 34.2676 79.2648 34.8537 79.2648 35.5758C79.2648 36.2985 78.6794 36.884 77.9566 36.884C77.2339 36.8846 76.6484 36.2985 76.6484 35.5758Z" fill="white"/>
<path d="M77.9566 31.6506C78.6794 31.6506 79.2648 31.0645 79.2648 30.3424C79.2648 29.6196 78.6794 29.0342 77.9566 29.0342C77.2345 29.0342 76.6484 29.6203 76.6484 30.3424C76.6484 31.0645 77.2339 31.6506 77.9566 31.6506Z" fill="white"/>
<path d="M77.9566 26.4821C78.6794 26.4821 79.2648 25.8967 79.2648 25.1739C79.2648 24.4518 78.6794 23.8657 77.9566 23.8657C77.2345 23.8657 76.6484 24.4518 76.6484 25.1739C76.6484 25.8967 77.2339 26.4821 77.9566 26.4821Z" fill="white"/>
<path d="M77.9566 47.4113C78.6794 47.4113 79.2648 46.8253 79.2648 46.1031C79.2648 45.3804 78.6794 44.7949 77.9566 44.7949C77.2345 44.7949 76.6484 45.381 76.6484 46.1031C76.6484 46.8253 77.2339 47.4113 77.9566 47.4113Z" fill="white"/>
<path d="M77.9566 42.2424C78.6794 42.2424 79.2648 41.6569 79.2648 40.9342C79.2648 40.2121 78.6794 39.626 77.9566 39.626C77.2345 39.626 76.6484 40.2121 76.6484 40.9342C76.6484 41.6569 77.2339 42.2424 77.9566 42.2424Z" fill="white"/>
<path d="M72.7242 26.4821C73.447 26.4821 74.0324 25.8967 74.0324 25.1739C74.0324 24.4518 73.4464 23.8657 72.7242 23.8657C72.0015 23.8657 71.416 24.4518 71.416 25.1739C71.416 25.8967 72.0021 26.4821 72.7242 26.4821Z" fill="white"/>
<path d="M68.798 25.1734C68.798 24.4513 68.2126 23.8652 67.4898 23.8652C66.7671 23.8652 66.1816 24.4513 66.1816 25.1734C66.1816 25.8962 66.7677 26.4816 67.4898 26.4816C68.2126 26.4823 68.798 25.8968 68.798 25.1734Z" fill="white"/>
<path d="M15.6454 79.503H4.56811C2.04907 79.503 0 77.4539 0 74.9349V54.8362C0 52.3171 2.04907 50.2681 4.56811 50.2681H15.6454C18.1645 50.2681 20.2135 52.3171 20.2135 54.8362V69.2321C20.2135 69.8625 19.7024 70.3743 19.0714 70.3743C18.4403 70.3743 17.9292 69.8631 17.9292 69.2321V54.8362C17.9292 53.5767 16.9043 52.5524 15.6454 52.5524H4.56811C3.30859 52.5524 2.28437 53.5773 2.28437 54.8362V74.9349C2.28437 76.1944 3.30921 77.2186 4.56811 77.2186H15.6454C16.905 77.2186 17.9292 76.1938 17.9292 74.9349C17.9292 74.3039 18.4403 73.7927 19.0714 73.7927C19.7024 73.7927 20.2135 74.3039 20.2135 74.9349C20.2135 77.4539 18.1645 79.503 15.6454 79.503Z" fill="white"/>
<path d="M11.2492 74.3141C11.2492 73.6831 10.738 73.1719 10.107 73.1719C9.47602 73.1719 8.96484 73.6831 8.96484 74.3141C8.96484 74.9451 9.47602 75.4562 10.107 75.4562C10.738 75.4556 11.2492 74.9444 11.2492 74.3141Z" fill="white"/>
<path d="M12.3904 55.4713C12.3904 54.8403 11.8792 54.3291 11.2482 54.3291H8.96445C8.33344 54.3291 7.82227 54.8403 7.82227 55.4713C7.82227 56.1023 8.33344 56.6135 8.96445 56.6135H11.2482C11.8786 56.6135 12.3904 56.1017 12.3904 55.4713Z" fill="white"/>
<path d="M11.4152 35.5934C11.4152 36.3161 10.8292 36.9016 10.107 36.9016C9.38427 36.9016 8.79883 36.3155 8.79883 35.5934C8.79883 34.8706 9.38427 34.2852 10.107 34.2852C10.8298 34.2845 11.4152 34.8706 11.4152 35.5934Z" fill="white"/>
<path d="M10.107 31.6677C10.8292 31.6677 11.4152 31.0816 11.4152 30.3595C11.4152 29.6367 10.8292 29.0513 10.107 29.0513C9.38427 29.0513 8.79883 29.6373 8.79883 30.3595C8.79883 31.0822 9.38427 31.6677 10.107 31.6677Z" fill="white"/>
<path d="M10.107 26.4987C10.8292 26.4987 11.4152 25.9133 11.4152 25.1905C11.4152 24.4684 10.8292 23.8823 10.107 23.8823C9.38427 23.8823 8.79883 24.4684 8.79883 25.1905C8.79883 25.9133 9.38427 26.4987 10.107 26.4987Z" fill="white"/>
<path d="M10.107 47.3952C10.8292 47.3952 11.4152 46.8092 11.4152 46.087C11.4152 45.3643 10.8292 44.7788 10.107 44.7788C9.38427 44.7788 8.79883 45.3649 8.79883 46.087C8.79883 46.8098 9.38427 47.3952 10.107 47.3952Z" fill="white"/>
<path d="M10.107 42.2268C10.8292 42.2268 11.4152 41.6413 11.4152 40.9186C11.4152 40.1964 10.8292 39.6104 10.107 39.6104C9.38427 39.6104 8.79883 40.1964 8.79883 40.9186C8.79883 41.6413 9.38427 42.2268 10.107 42.2268Z" fill="white"/>
<path d="M15.3414 26.4987C16.0642 26.4987 16.6496 25.9133 16.6496 25.1905C16.6496 24.4684 16.0635 23.8823 15.3414 23.8823C14.6187 23.8823 14.0332 24.4684 14.0332 25.1905C14.0326 25.9133 14.6187 26.4987 15.3414 26.4987Z" fill="white"/>
<path d="M19.2656 25.1905C19.2656 25.9133 19.8511 26.4987 20.5738 26.4987C21.2966 26.4987 21.882 25.9133 21.882 25.1905C21.882 24.4684 21.296 23.8823 20.5738 23.8823C19.8511 23.8823 19.2656 24.4678 19.2656 25.1905Z" fill="white"/>
<path d="M91.9718 61.9482V55.4596C91.9718 54.0284 90.8072 52.8644 89.3767 52.8644H66.5367C65.1056 52.8644 63.9415 54.029 63.9415 55.4596V68.4368C63.9415 69.8679 65.1062 71.032 66.5367 71.032H89.3767C90.8078 71.032 91.9718 69.8673 91.9718 68.4368C91.9718 67.7203 92.5529 67.1392 93.2694 67.1392C93.986 67.1392 94.567 67.7203 94.567 68.4368C94.567 71.2991 92.2384 73.6278 89.376 73.6278H79.2537V76.2155H83.7956C84.5121 76.2155 85.0932 76.7966 85.0932 77.5131C85.0932 78.2296 84.5121 78.8107 83.7956 78.8107H72.1166C71.4 78.8107 70.819 78.2296 70.819 77.5131C70.819 76.7966 71.4 76.2155 72.1166 76.2155H76.6585V73.6278H66.5367C63.6744 73.6278 61.3457 71.2991 61.3457 68.4368V55.4596C61.3457 52.5972 63.6744 50.2686 66.5367 50.2686H89.3767C92.239 50.2686 94.5677 52.5972 94.5677 55.4596V61.9482C94.5677 62.6647 93.9866 63.2458 93.2701 63.2458C92.5536 63.2458 91.9718 62.6647 91.9718 61.9482Z" fill="white"/>
<path d="M35.0492 14.9546C35.0492 15.6736 34.4663 16.2565 33.7473 16.2565C33.0283 16.2565 32.4453 15.6736 32.4453 14.9546C32.4453 14.2355 33.0283 13.6526 33.7473 13.6526C34.4663 13.6526 35.0492 14.2355 35.0492 14.9546Z" fill="white"/>
<path d="M58.0933 17.428V13.7175C58.0933 10.8458 55.7571 8.51025 52.886 8.51025H32.5764C29.7047 8.51025 27.3691 10.8464 27.3691 13.7175V16.1261C27.3691 17.6802 28.0545 19.0764 29.1373 20.032C28.0538 20.9869 27.3691 22.3831 27.3691 23.9379V26.4113C27.3691 27.9655 28.0545 29.3617 29.1373 30.3172C28.0538 31.2722 27.3691 32.6684 27.3691 34.2231V36.6317C27.3691 39.5034 29.7053 41.8389 32.5764 41.8389H34.2035C34.9225 41.8389 35.5055 41.256 35.5055 40.537C35.5055 39.818 34.9225 39.235 34.2035 39.235H32.5764C31.1408 39.235 29.9724 38.0666 29.9724 36.6311V34.2219C29.9724 32.7864 31.1408 31.618 32.5764 31.618H37.1333C37.8523 31.618 38.4352 31.035 38.4352 30.316C38.4352 29.597 37.8523 29.014 37.1333 29.014H32.5764C31.1408 29.014 29.9724 27.8456 29.9724 26.4101V23.9366C29.9724 22.5011 31.1408 21.3327 32.5764 21.3327H37.3286V25.7591C37.3286 26.4781 37.9116 27.0611 38.6306 27.0611C39.3496 27.0611 39.9325 26.4781 39.9325 25.7591V21.3333H52.886C53.8541 21.3333 54.7372 21.8657 55.1904 22.7226C55.5268 23.358 56.3145 23.6014 56.9498 23.265C57.5852 22.9292 57.8286 22.1416 57.4922 21.5056C57.2781 21.0999 57.0141 20.731 56.7127 20.4039C57.5565 19.6874 58.0933 18.6195 58.0933 17.428ZM55.49 17.428C55.49 18.1458 54.9058 18.73 54.188 18.73H32.5764C31.1408 18.73 29.9724 17.5616 29.9724 16.1261V13.7175C29.9724 12.282 31.1408 11.1136 32.5764 11.1136H37.3286V15.4751C37.3286 16.1941 37.9116 16.777 38.6306 16.777C39.3496 16.777 39.9325 16.1941 39.9325 15.4751V11.1136H52.886C54.3216 11.1136 55.49 12.282 55.49 13.7175V17.428Z" fill="white"/>
<path d="M32.4453 35.4592C32.4453 36.1782 33.0283 36.7612 33.7473 36.7612C34.4663 36.7612 35.0492 36.1782 35.0492 35.4592C35.0492 34.7402 34.4663 34.1572 33.7473 34.1572C33.0283 34.1572 32.4453 34.7402 32.4453 35.4592Z" fill="white"/>
<path d="M32.4453 25.1745C32.4453 25.8935 33.0283 26.4765 33.7473 26.4765C34.4663 26.4765 35.0492 25.8935 35.0492 25.1745C35.0492 24.4555 34.4663 23.8726 33.7473 23.8726C33.0283 23.8726 32.4453 24.4555 32.4453 25.1745Z" fill="white"/>
<path d="M58.4972 32.0637V31.7017C58.4972 28.1746 55.6174 25.3042 52.0779 25.3042C50.5375 25.3042 49.0477 25.8559 47.8837 26.8589C47.2189 27.4307 46.6841 28.1278 46.3052 28.9018C45.8152 28.7201 45.2872 28.624 44.7448 28.624C43.5889 28.624 42.5029 29.0647 41.6872 29.8642C40.862 30.6731 40.4077 31.756 40.4077 32.9144V33.3825C38.6257 33.9299 37.3281 35.5745 37.3281 37.5137C37.3281 38.6684 37.7675 39.7513 38.5652 40.5633C39.3728 41.3859 40.4582 41.8384 41.6216 41.8384H55.2598C55.6736 41.8384 56.0706 41.7941 56.4719 41.703C57.6534 41.4346 58.725 40.7668 59.4902 39.8237C60.2686 38.8644 60.6967 37.6548 60.6967 36.419C60.6967 34.682 59.871 33.0767 58.4972 32.0637ZM55.8952 39.1633C55.6855 39.2114 55.4776 39.2345 55.2598 39.2345H41.6216C40.6742 39.2345 39.9321 38.4786 39.9321 37.5137C39.9321 36.565 40.7266 35.7929 41.7028 35.7929H41.7096C42.4286 35.7929 43.0116 35.21 43.0116 34.491V32.9138C43.0116 31.9682 43.773 31.2273 44.7455 31.2273C45.2697 31.2273 45.7322 31.4233 46.0474 31.7785C46.382 32.1554 46.9044 32.3059 47.3881 32.1642C47.8724 32.0219 48.2307 31.6137 48.3081 31.115C48.5921 29.2869 50.2136 27.9075 52.0785 27.9075C54.1825 27.9075 55.8939 29.6089 55.8939 31.7011V32.779C55.8939 33.2614 56.1611 33.7046 56.5874 33.9299C57.5167 34.4211 58.0934 35.3741 58.0934 36.4183C58.0928 37.7409 57.189 38.8694 55.8952 39.1633Z" fill="white"/>
<path d="M56.5246 1.69837C58.7734 1.61911 60.8824 2.4461 62.4634 4.02768C64.0443 5.60926 64.8719 7.71825 64.7927 9.96704C64.7764 10.4345 65.1416 10.8265 65.6091 10.8427C66.0765 10.8589 66.4685 10.4938 66.4847 10.0263C66.5808 7.30319 65.5778 4.74732 63.6605 2.83057C61.7431 0.913822 59.1885 -0.089802 56.4653 0.00631626C55.9979 0.022544 55.6327 0.415131 55.649 0.881991C55.6571 1.10481 55.7501 1.30454 55.8961 1.45059C56.0565 1.61099 56.2806 1.70711 56.5246 1.69837Z" fill="white"/>
<path d="M56.2922 4.70297C57.8082 4.6986 59.1988 5.25221 60.2087 6.26208C61.2186 7.27194 61.7722 8.66254 61.7678 10.1786C61.7666 10.6461 62.1442 11.0262 62.6117 11.0274C63.0791 11.0287 63.4593 10.6504 63.4605 10.183C63.4661 8.21315 62.7359 6.39502 61.4058 5.06497C60.0751 3.73429 58.2576 3.00467 56.2872 3.01029C55.8197 3.01153 55.4421 3.39164 55.4434 3.85912C55.444 4.09193 55.5389 4.30227 55.6911 4.45518C55.8447 4.6081 56.0575 4.70297 56.2922 4.70297Z" fill="white"/>
<path d="M59.4596 11.1056C59.9271 11.1056 60.3059 10.7261 60.3059 10.2586C60.3053 9.182 59.8597 8.06727 59.1419 7.35013L59.1138 7.32205C59.1138 7.32205 59.1138 7.32205 59.1132 7.32142C58.3911 6.59929 57.2732 6.1499 56.1966 6.1499C55.7291 6.1499 55.3496 6.52876 55.3496 6.99624C55.3496 7.46373 55.7285 7.84321 56.196 7.84321C56.8307 7.84383 57.5054 8.10909 57.9161 8.51916L57.9448 8.54787C58.3505 8.95356 58.6126 9.62576 58.6133 10.2599C58.6133 10.4939 58.7081 10.7049 58.861 10.8584C59.014 11.0107 59.2255 11.1056 59.4596 11.1056Z" fill="white"/>
</svg>
